<svg width="21" height="20" viewBox="0 0 21 20" fill="none" xmlns="http://www.w3.org/2000/svg">
<path fill-rule="evenodd" clip-rule="evenodd" d="M3.07715 7.83737H17.9304H3.07715Z" fill="#00B7C4"/>
<path d="M3.07715 7.83737H17.9304" stroke="#00B7C4" stroke-width="1.5" stroke-linecap="round" stroke-linejoin="round"/>
<path fill-rule="evenodd" clip-rule="evenodd" d="M6.04785 11.0918C6.04785 10.6776 6.38364 10.3418 6.79785 10.3418H6.80557C7.21979 10.3418 7.55557 10.6776 7.55557 11.0918C7.55557 11.506 7.21979 11.8418 6.80557 11.8418H6.79785C6.38364 11.8418 6.04785 11.506 6.04785 11.0918ZM10.5035 10.3418C10.0892 10.3418 9.75345 10.6776 9.75345 11.0918C9.75345 11.506 10.0892 11.8418 10.5035 11.8418H10.5112C10.9254 11.8418 11.2612 11.506 11.2612 11.0918C11.2612 10.6776 10.9254 10.3418 10.5112 10.3418H10.5035ZM14.2013 10.3418C13.7871 10.3418 13.4513 10.6776 13.4513 11.0918C13.4513 11.506 13.7871 11.8418 14.2013 11.8418H14.2091C14.6233 11.8418 14.9591 11.506 14.9591 11.0918C14.9591 10.6776 14.6233 10.3418 14.2091 10.3418H14.2013ZM14.2013 13.5805C13.7871 13.5805 13.4513 13.9163 13.4513 14.3305C13.4513 14.7447 13.7871 15.0805 14.2013 15.0805H14.2091C14.6233 15.0805 14.9591 14.7447 14.9591 14.3305C14.9591 13.9163 14.6233 13.5805 14.2091 13.5805H14.2013ZM9.75345 14.3305C9.75345 13.9163 10.0892 13.5805 10.5035 13.5805H10.5112C10.9254 13.5805 11.2612 13.9163 11.2612 14.3305C11.2612 14.7447 10.9254 15.0805 10.5112 15.0805H10.5035C10.0892 15.0805 9.75345 14.7447 9.75345 14.3305ZM6.79785 13.5805C6.38364 13.5805 6.04785 13.9163 6.04785 14.3305C6.04785 14.7447 6.38364 15.0805 6.79785 15.0805H6.80557C7.21979 15.0805 7.55557 14.7447 7.55557 14.3305C7.55557 13.9163 7.21979 13.5805 6.80557 13.5805H6.79785Z" fill="#00B7C4"/>
<path d="M13.8694 1.66699V4.40931" stroke="#00B7C4" stroke-width="1.5" stroke-linecap="round" stroke-linejoin="round"/>
<path d="M7.13795 1.66699V4.40931" stroke="#00B7C4" stroke-width="1.5" stroke-linecap="round" stroke-linejoin="round"/>
<path fill-rule="evenodd" clip-rule="evenodd" d="M14.0319 2.9834H6.9758C4.52856 2.9834 3 4.34668 3 6.85259V14.394C3 16.9393 4.52856 18.3341 6.9758 18.3341H14.0242C16.4791 18.3341 18 16.9629 18 14.457V6.85259C18.0077 4.34668 16.4868 2.9834 14.0319 2.9834Z" stroke="#00B7C4" stroke-width="1.5" stroke-linecap="round" stroke-linejoin="round"/>
</svg>
