<svg width="32" height="32" viewBox="0 0 32 32" fill="none" xmlns="http://www.w3.org/2000/svg">
<path d="M20.625 9.375C19.4188 9.375 18.4375 8.39369 18.4375 7.1875V0H7.25C5.35456 0 3.8125 1.54206 3.8125 3.4375V28.5625C3.8125 30.4579 5.35456 32 7.25 32H24.75C26.6454 32 28.1875 30.4579 28.1875 28.5625V9.375H20.625ZM8.9375 22.5H13.4825C14.0002 22.5 14.42 22.9198 14.42 23.4375C14.42 23.9552 14.0002 24.375 13.4825 24.375H8.9375C8.41975 24.375 8 23.9552 8 23.4375C8 22.9198 8.41975 22.5 8.9375 22.5ZM8 18.4375C8 17.9198 8.41975 17.5 8.9375 17.5H22.6875C23.2052 17.5 23.625 17.9198 23.625 18.4375C23.625 18.9552 23.2052 19.375 22.6875 19.375H8.9375C8.41975 19.375 8 18.9552 8 18.4375ZM22.6875 12.5C23.2052 12.5 23.625 12.9198 23.625 13.4375C23.625 13.9552 23.2052 14.375 22.6875 14.375H8.9375C8.41975 14.375 8 13.9552 8 13.4375C8 12.9198 8.41975 12.5 8.9375 12.5H22.6875Z" fill="#00B7C4"/>
<path d="M20.3125 7.18736C20.3125 7.35967 20.4527 7.49986 20.625 7.49986H27.7696C27.5981 7.18323 27.3775 6.89242 27.1124 6.64161L21.086 0.940234C20.8521 0.718984 20.5916 0.534422 20.3126 0.388672V7.18736H20.3125Z" fill="#00B7C4"/>
</svg>
