<svg xmlns="http://www.w3.org/2000/svg" width="20" height="20" viewBox="0 0 20 20" fill="none">
    <path d="M17.725 7.64992C17.4834 7.26659 17.225 6.90825 16.9584 6.57492C16.65 6.18325 16.0667 6.14992 15.7167 6.49992L13.2167 8.99992C13.4 9.54992 13.4334 10.1833 13.2667 10.8416C12.975 12.0166 12.025 12.9666 10.85 13.2583C10.1917 13.4249 9.55837 13.3916 9.00837 13.2083C9.00837 13.2083 7.81671 14.3999 6.95837 15.2583C6.54171 15.6749 6.67504 16.4083 7.23337 16.6249C8.12504 16.9666 9.05004 17.1416 10 17.1416C11.4834 17.1416 12.925 16.7083 14.2417 15.8999C15.5834 15.0666 16.7917 13.8416 17.7667 12.2833C18.5584 11.0249 18.5167 8.90825 17.725 7.64992Z" fill="#6A6F80"/>
    <path d="M11.6834 8.3167L8.3167 11.6834C7.8917 11.25 7.6167 10.65 7.6167 10C7.6167 8.6917 8.68337 7.6167 10 7.6167C10.65 7.6167 11.25 7.8917 11.6834 8.3167Z" fill="#6A6F80"/>
    <path d="M15.2084 4.79173L12.3834 7.61673C11.7751 7.00007 10.9334 6.6334 10.0001 6.6334C8.13342 6.6334 6.63341 8.14173 6.63341 10.0001C6.63341 10.9334 7.00842 11.7751 7.61675 12.3834L4.80008 15.2084H4.79175C3.86675 14.4584 3.01675 13.5001 2.29175 12.3667C1.45841 11.0584 1.45841 8.9334 2.29175 7.62506C3.25841 6.1084 4.44175 4.91673 5.75841 4.10007C7.07508 3.30007 8.51675 2.8584 10.0001 2.8584C11.8584 2.8584 13.6584 3.54173 15.2084 4.79173Z" fill="#6A6F80"/>
    <path d="M12.3834 10.0001C12.3834 11.3084 11.3167 12.3834 10.0001 12.3834C9.95007 12.3834 9.9084 12.3834 9.8584 12.3667L12.3667 9.8584C12.3834 9.9084 12.3834 9.95007 12.3834 10.0001Z" fill="#6A6F80"/>
    <path d="M18.1417 1.8584C17.8917 1.6084 17.4834 1.6084 17.2334 1.8584L1.8584 17.2417C1.6084 17.4917 1.6084 17.9001 1.8584 18.1501C1.9834 18.2667 2.14173 18.3334 2.3084 18.3334C2.47507 18.3334 2.6334 18.2667 2.7584 18.1417L18.1417 2.7584C18.4001 2.5084 18.4001 2.1084 18.1417 1.8584Z" fill="#6A6F80"/>
</svg>