<svg width="18" height="18" viewBox="0 0 18 18" fill="none" xmlns="http://www.w3.org/2000/svg">
<path d="M9 9C11.0711 9 12.75 7.32107 12.75 5.25C12.75 3.17893 11.0711 1.5 9 1.5C6.92893 1.5 5.25 3.17893 5.25 5.25C5.25 7.32107 6.92893 9 9 9Z" stroke="#00B7C4" stroke-width="1.125" stroke-linecap="round" stroke-linejoin="round"/>
<path d="M14.4083 11.8048L11.7532 14.4598C11.6482 14.5648 11.5508 14.7598 11.5283 14.9023L11.3858 15.9148C11.3333 16.2823 11.5883 16.5373 11.9558 16.4848L12.9682 16.3423C13.1107 16.3198 13.3133 16.2223 13.4108 16.1173L16.0657 13.4623C16.5232 13.0048 16.7407 12.4723 16.0657 11.7973C15.3982 11.1298 14.8658 11.3473 14.4083 11.8048Z" stroke="#00B7C4" stroke-width="1.125" stroke-miterlimit="10" stroke-linecap="round" stroke-linejoin="round"/>
<path d="M14.0254 12.1875C14.2504 12.9975 14.8804 13.6275 15.6904 13.8525" stroke="#00B7C4" stroke-width="1.125" stroke-miterlimit="10" stroke-linecap="round" stroke-linejoin="round"/>
<path d="M2.55762 16.5C2.55762 13.5975 5.44514 11.25 9.00014 11.25C9.78014 11.25 10.5301 11.3625 11.2276 11.5725" stroke="#00B7C4" stroke-width="1.125" stroke-linecap="round" stroke-linejoin="round"/>
</svg>
